<svg xmlns="http://www.w3.org/2000/svg" xmlns:xlink="http://www.w3.org/1999/xlink" width="1834.33" height="283.667"><defs><path id="a" d="M-.002 0h1834.333v283.667H-.002z"/></defs><clipPath id="b"><use xlink:href="#a" overflow="visible"/></clipPath><path clip-path="url(#b)" fill="#E4F2E4" d="M-.002 0v7.639A5.418 5.418 0 0 1 1 7.584c.495.018.987.058 1.478.097.375-.073.776-.11 1.209-.097 4.163.121 8.393.473 12.542.854.084.008.165.025.248.036.193-.012.388-.013.586.006a45.46 45.46 0 0 1 2.268.287c.089.005.214.015.378.028a18.84 18.84 0 0 1 1.984.193c.22-.001.44.004.662-.008a4.2 4.2 0 0 1 1.546.208l.298.016c.49.029.979.068 1.468.111a3.93 3.93 0 0 1 .564-.002c3.612.265 7.214.637 10.833.833.208.011.409.05.611.083.19-.007.382-.003.577.021 1.748.222 3.502.373 5.258.512.282-.045.575-.075.888-.075.647 0 1.225.104 1.742.285l1.273.103c.162 0 .322.008.484.007.151-.001.294.031.442.043l.037-.002c.257 0 .499.021.736.052.068-.003.132-.01.202-.01.3 0 .581.028.854.07.119-.009.23-.028.355-.028.455 0 .875.055 1.266.147.391.024.762.075 1.103.169.094-.005.18-.024.278-.024a28.236 28.236 0 0 1 4.415.361c.181-.018.358-.052.544-.049 1.99.038 3.934.352 5.886.596.517.025 1.035.041 1.552.071.091.005.178.021.268.031.119 0 .237-.001.357.011.654.063 1.307.139 1.959.216.07-.006.136-.025.207-.028.932-.042 1.843.127 2.759.275 1.978-.092 3.852.289 5.783.454.154.013.3.048.45.074.031-.001.06-.01.092-.011.967-.024 1.918.09 2.868.23.182.013.361.028.548.018l-.221.03.016.002a5.798 5.798 0 0 1 1.403.047c.79.011 1.58.048 2.343.235.137-.003.274-.007.418 0 2.244.108 4.482.324 6.719.548l.121.012c.505.05 1.009.098 1.514.146.057-.002.11-.017.167-.017h.083c.145 0 .283.032.426.044.018 0 .035-.003.054-.003.334 0 .645.034.944.085.148-.011.296-.022.452-.022.52 0 .993.071 1.429.19.123.022.249.037.369.07.848.066 1.695.138 2.544.179.473 0 .943.013 1.408.061.199.02.389.052.576.089.093-.003.184-.009.278-.006.298.011 3.218.279 2.021.208.632.037 1.264.083 1.896.125 1.525.102 3.046.203 4.563.396.195.025.382.072.571.11.142-.008.284-.012.429-.006 2.364.106 4.654.505 6.953.78a7.68 7.68 0 0 1 1.481.045c.334.045.68.075 1.018.116.159-.013.319-.024.486-.024.434 0 .824.064 1.197.153.185-.018.376-.028.574-.028.663 0 1.254.11 1.781.3 2.794.22 5.62.348 8.344.429.663.02 1.251.152 1.777.358.309.004.626.036.946.088.03 0 .059-.009.089-.008.412.006.82.041 1.229.083.358.037.7.087 1.029.156.192-.006.391-.003.596.011 6.133.425 12.517.794 18.642 1.752.189.003.385.016.587.04.363.045.726.081 1.089.122.097-.017.187-.049.286-.06l.188-.021a4.4 4.4 0 0 1 2.02.224l.085.005c.369.021.717.082 1.049.169.301.039.601.083.902.122a5.497 5.497 0 0 1 1.049-.021c2.269.171 4.526.459 6.787.699.298-.021.609-.023.942.009 4.136.402 8.245.924 12.396 1.188.198.013.383.045.569.076.115.001.228-.001.347.008a689.672 689.672 0 0 1 23.167 2.063c.355.037.683.112.998.204.057-.001.111-.017.168-.016 2.774.028 5.813.296 8.552.897.354-.006.723.025 1.106.098.527.036 1.056.083 1.572.155.919.101 1.835.216 2.751.335.119-.005.229-.029.352-.026 6.928.156 13.943 1.23 20.861 2.101.319-.002.648.019.989.077.979.166 2.142.31 3.248.414.081-.014.151-.039.235-.051 3.187-.422 7.072.409 10.506.998.088.001.173-.003.264.002 1.484.086 2.953.282 4.419.504a5.326 5.326 0 0 1 1.965.177c2.733-.232 5.952.612 8.503.924.139-.01.279-.021.425-.021 1.761 0 3.476.242 5.184.547a5.486 5.486 0 0 1 2.062-.077c2.352.349 4.709.684 7.067 1.007.056.002.11-.002.166.002 1.773.135 3.571.279 5.35.527.14.016.277.039.416.059.347.052.689.128 1.034.19 2.142.096 4.359.328 6.543.683h.011c3.872.093 7.733.332 11.558.97 1.044.174 2.09.395 3.138.601a86.48 86.48 0 0 1 6.271.556l.033-.002-.001.006c.443.057.888.106 1.33.173.299.045.577.111.836.192.676.086 1.347.185 2.019.281a3.627 3.627 0 0 1 1.587-.172c4.548.541 9.104 1.21 13.653 1.754 1.578-.208 2.974-.074 4.596.209l.159.027c.103.013.207.024.31.038.818.104 1.633.211 2.444.358.234.043.456.113.671.195.27.024.542.034.812.064.501.056.955.181 1.377.343a5.553 5.553 0 0 1 1.577.002c9.125 1.304 18.42 1.698 27.5 3.167.073.012.129.039.199.053 3.032.171 6.067.609 9.091 1.082.196-.011.399-.012.609-.001 2.05.105 4.064.395 6.065.756.218-.017.432-.042.664-.027a87.17 87.17 0 0 1 11.809 1.565c.016 0 .029-.003.045-.003 2.196.082 4.399.376 6.6.792h.358c.496 0 .969.098 1.424.238.745.05 1.492.153 2.235.27 2.356-.132 4.742.288 7.096.745 2.477-.135 4.917.458 7.364.989a13.46 13.46 0 0 1 3.482.259c.442.089.878.202 1.314.315.244.009.492.028.748.07l1.717.288c.048-.002.093-.008.141-.008 5.167-.056 10.361 1.122 15.47 1.811 4.592.618 9.188.748 13.734 1.722.349.075.66.183.954.305.266.006.536.024.816.07.184.03.368.065.552.096 2.561.031 4.993.481 7.448.997.34-.067.701-.105 1.088-.105 1.051 0 1.928.269 2.637.714 1.343.126 2.674.29 3.992.509 2.562.204 5.137.521 7.644 1.029.303-.052.619-.085.957-.085.781 0 1.465.148 2.056.406.412-.021.843.002 1.294.085 8.833 1.627 17.945 2.028 26.729 3.854.252.052.485.122.708.2.874.09 1.734.21 2.579.354.249-.004.506.004.779.038 8.63 1.079 17.327 2.325 25.892 3.804a5.26 5.26 0 0 1 1.258.375c7.781.302 15.087 2.179 22.733 3.561 6.111 1.104 12.295 1.712 18.393 2.841 2.103.288 4.204.61 6.242 1.023 2.324.471 4.728.7 6.983 1.386 12.412 1.311 24.94 3.946 37.044 6.615.227-.006.46-.003.706.02 6.58.633 13.179 2.577 19.671 3.884 6.435 1.296 13.042 2 19.408 3.586a4.92 4.92 0 0 1 1.933.939 5.262 5.262 0 0 1 2.511.482c1.529.692 4.078.715 5.722 1.036.89.174 1.753.397 2.611.632.419-.002.841.025 1.264.119 1.035.23 2.075.437 3.064.827l.353.142c.821.119 1.622.268 2.416.572.226.087.443.188.655.296 3.354.694 6.754 1.269 10.077 2.076 2.888.702 5.769 1.445 8.647 2.201 7.374 1.063 14.621 3.516 21.912 5.052.943.199 1.951.425 2.937.732 4.264.454 8.352 1.582 12.41 2.823.24.022.484.055.737.112l.167.041c4.046.567 8.01 1.707 11.955 2.877 1.896.361 3.695.862 5.496 1.523 9.485 1.525 18.628 3.812 27.853 6.59 5.905.481 11.782 2.536 17.592 4.315a16.35 16.35 0 0 1 6.139 1.542c.32.029.651.085.995.182 3.483.452 6.995 1.456 10.453 2.526 6.297 1.192 12.592 3.099 18.744 4.911 1.164.069 2.202.384 3.356.785.212.074.411.159.602.25.881.038 1.788.043 2.478.213.819.201 1.565.566 2.253 1.022 1.922.445 3.843.895 5.746 1.452l.058.018c.322.01.651.051.987.128 1.162.266 2.296.64 3.424 1.032.081.018.16.029.243.051 2.997.783 6.286.566 8.771 2.467.104.011.206.017.312.033 7.39 1.155 14.643 3.76 21.88 5.914.149.01.299.022.453.045 3.444.511 7.047 1.846 10.401 2.839 4.619 1.367 9.43 2.018 14.022 3.481 2.389.761 4.777 1.535 7.164 2.316 7.528 1.497 15.087 3.676 22.335 6.201.273.021.551.056.839.122 6.929 1.58 13.675 4.194 20.619 5.843 6.272 1.49 12.426 3.109 18.568 5.063.517.164.968.387 1.363.65.267.044.518.109.758.189.298.037.591.083.877.143l.002-.013c.096.022.19.05.286.072.109.026.218.053.325.082 4.757 1.128 9.407 2.66 14.105 4 1.433.409 2.848.965 4.262 1.529 3.062.229 6.008 1.118 8.92 2.175.339.001.685.032 1.038.111 1.377.307 2.612.805 3.938 1.281.393.141.747.316 1.068.515 1.039.063 2.047.191 3.082.386a4.779 4.779 0 0 1 1.501.568 4.374 4.374 0 0 1 1.512.507c.865.123 1.594.439 2.181.893.141.048.285.096.437.137 1.688.458 3.338 1.001 5.004 1.531.189.06.38.117.569.177.405-.006.828.031 1.27.128 2.3.503 4.523 1.27 6.733 2.064 2.866.306 5.53 1.372 8.226 2.329.36.005.726.042 1.103.138 1.917.489 3.812 1.046 5.701 1.624 1.701.227 3.347.569 4.877 1.336.279.024.564.063.859.134 9.228 2.222 18.216 5.594 27.5 7.531.59.123 1.096.322 1.533.575 3.235 1.042 6.67 1.723 9.967 2.488.792.184 1.436.502 1.954.907 1.28.056 2.554.442 3.821.896 3.186.145 6.503 1.69 9.463 2.489 2.059.556 4.09 1.202 6.12 1.848 2.185.074 4.316 1.092 6.466 1.61.416.1.778.248 1.115.415.363.052.741.146 1.135.293.381.159.77.297 1.162.423.147.013.294.03.442.056 6.856 1.205 13.697 3.562 20.438 5.333.25.066.481.148.702.239 1.556.135 3.035.505 4.548.886.453.114.864.305 1.243.542.305.029.619.079.945.166 2.85.767 5.71 1.547 8.573 2.326 2.735.459 5.329 1.37 8.069 1.937 2.731.565 5.505 1.101 8.171 1.925a5.297 5.297 0 0 1 1.513.742c.19.015.38.02.571.05 2.58.404 5.179 1.214 7.732 1.934 1.096.023 2.121.242 3.072.701 7.345 1.314 14.481 3.386 21.764 5.284.917.226 1.833.46 2.747.704 2.516.228 4.926.963 7.394 1.497 1.884.408 3.971 1.254 5.858 1.462.448.049.878.153 1.295.281.953-.103 1.849.181 2.615.695 2.664.361 5.309.872 7.948 1.54 5.613 1.421 11.22 2.059 16.784 3.693.203.06.395.129.579.205a5.29 5.29 0 0 1 1.187.295c.052.003.101.003.154.009 2.963.32 5.869.95 8.81 1.429 2.938.478 5.808 1.771 8.757 2.052 4.702.447 9.074 1.761 13.553 2.843.075-.003.147-.011.224-.011.209 0 .41.011.605.032.029.003.057.01.086.013.167.02.331.045.488.079l.04.011a4.985 4.985 0 0 1 .497.14c.169.058.332.125.487.2.519.01.989.091 1.422.221.211-.024.429-.039.656-.039 1.083 0 1.98.287 2.699.756 4.732.843 9.627 1.315 14.332 2.387.366-.016.747.004 1.142.067 4.109.651 8.063 2.02 12.193 2.53 2.26.279 4.377.608 6.47 1.237.421-.007.847.016 1.275.108 2.794.599 6.394.199 9.268 1.381 6.643.298 13.233 1.964 19.837 3.234a4.324 4.324 0 0 1 1.597-.138c2.524.24 4.972.703 7.454 1.21a5.5 5.5 0 0 1 .825.243c.065-.003.123-.015.19-.015 3.837.002 7.419.578 11.173 1.366.187.039.367.094.543.157 6.001.224 11.916 1.449 17.856 2.263.691.095 1.385.178 2.077.266 1.306.118 2.61.196 3.91.331 3.243-.123 6.448.426 9.676 1.014.312.057.606.154.885.279.784.073 1.568.147 2.351.223.803-.28 1.72-.362 2.733-.158 1.86.374 3.781.65 5.717.881a5.464 5.464 0 0 1 1.204-.091c3.746.124 7.435.547 11.142 1.085 3.665.531 7.365.15 11 .906.197.041.363.108.543.164 2.331-.006 4.791-.066 7.051.43.103.023.201.055.3.085.143-.007.283-.018.433-.014 5.905.161 11.982.526 17.844 1.25.079.01.153.032.23.044 4.387.077 8.883.398 13.235.893a4.13 4.13 0 0 1 1.004-.062c2.009.123 4.018.212 6.031.219a4.906 4.906 0 0 1 1.687.324c7.296.112 14.642.788 21.904 1.522 1.537.026 3.075.062 4.596.248.018.002.034.008.052.01.109-.012.21-.035.323-.041 5.988-.305 11.946.345 17.909.776 1.477-.094 2.945-.238 4.449-.172 2.29.101 4.574.274 6.861.423.354-.019.708-.033 1.062-.058a5.127 5.127 0 0 1 1.654.133c.18.001.361.003.541.007a5.537 5.537 0 0 1 1.941-.043l.02-.003c1.497-.18 3.252-.362 4.767.061 9.617-.117 19.241-.715 28.858-.686.346.001.669.036.978.092.242-.053.489-.095.741-.123 2.495-.279 4.997-.136 7.495-.092a5.2 5.2 0 0 1 1.817-.314c.165 0 .323.011.479.023.286-.047.578-.086.896-.086.543 0 1.036.076 1.488.206.092-.011.184-.015.276-.027a7.77 7.77 0 0 1 1.536-.042c6.068-.641 11.968-.935 18.074-.856l.019.001c.285-.02.572-.045.856-.064 4.644-.301 9.298-.682 13.938-1.094a5.064 5.064 0 0 1 1.667.111c2.623-.231 5.266-.351 7.91-.463 1.704-.775 3.831-.716 5.624-.676 2.215.049 4.346-.396 6.548-.411a5.55 5.55 0 0 1 .873.067c5.588-.662 11.297-1.219 16.877-1.473.116-.005.225 0 .336.001 3.192-.517 6.511-.713 9.695-1.064a3.59 3.59 0 0 1 .63-.006c.803-.16 1.618-.279 2.432-.337.286-.02.576 0 .866.053a43.68 43.68 0 0 1 2.259-.146 5.79 5.79 0 0 1 .729.026c6.568-.994 13.205-1.371 19.825-2.138 8.649-1.001 16.998-3.271 25.674-3.983 8.192-.673 16.833-2.357 24.849-4.133 4.244-.94 8.629-1.135 12.833-2.25 3.832-1.016 7.617-1.836 11.577-1.989V0H-.002z"/><path clip-path="url(#b)" fill="none" stroke="#2D5C2D" stroke-miterlimit="10" d="M1832.499 258.75s-79.75 19.25-216 21.75c-36.954.678-72.845-2.464-107.5-4.667-192.726-12.252-356.47-66.028-575.333-126.666-69.807-19.341-145.482-37.718-229.167-56.667C479.998 41.667 2.95 6.947 2.95 6.947"/><path clip-path="url(#b)" fill="none" stroke="#2D5C2D" stroke-miterlimit="10" d="M1832.499 258.75s-74.292 15.677-183.01 18.333c-45.887 1.121-94.015-.576-143.24-5.583-82.837-8.426-158.753-22.015-228.167-37.417-113.888-25.27-215.629-57.566-341.355-95.821-69.299-21.086-145.686-39.505-229.145-59.429-224.625-53.625-504.5-72.125-504.5-72.125"/><path clip-path="url(#b)" fill="none" stroke="#2D5C2D" stroke-miterlimit="10" d="M402.998 3.875s112.5 11.333 306.333 57.333c83.485 19.813 163.615 42.283 232.667 64.167 86.189 27.315 155.375 50.774 216.167 68.833 89.362 26.546 160.33 41.887 237.166 56.792 244 47.333 437.167 7.75 437.167 7.75"/></svg>